<svg xmlns="http://www.w3.org/2000/svg" xmlns:xlink="http://www.w3.org/1999/xlink" width="166.852" height="43.476" viewBox="0 0 166.852 43.476"><defs><style>.a{fill:none;}.b{clip-path:url(#a);}.c{fill:#9dcae0;}.d{fill:#fff;}</style><clipPath id="a"><rect class="a" width="166.852" height="43.476"/></clipPath></defs><g transform="translate(0 0)"><g class="b" transform="translate(0 0)"><g transform="translate(0 0)"><g class="b"><path class="c" d="M296.507,335.508a6.159,6.159,0,0,1,4-3.691,6.894,6.894,0,0,1,1.571-.209c2.876-.008,6.442,0,9.319,0h.468v-.5c0-2.919,0-5.838,0-8.757a6.451,6.451,0,0,1,2.034-4.94,5.663,5.663,0,0,1,2.925-1.48c-.276.453-.526.837-.75,1.236a12.474,12.474,0,0,0-1.532,4.9,18.54,18.54,0,0,0,.973,7.29c.564,1.864,2.276,5.426,1.973,6.323-.165.487-.445.931-.643,1.408a7.8,7.8,0,0,0-.652,3.065,4.683,4.683,0,0,0,.475,2.165,5.864,5.864,0,0,1,.264,2.727,41.626,41.626,0,0,1-1.771,9.749c-.406,1.1-.924,2.164-1.423,3.318A6.208,6.208,0,0,1,312.3,355.9a6.838,6.838,0,0,1-.434-2.516q-.006-4.379,0-8.757V344.1h-.487c-2.846,0-6.382.009-9.228,0a6.043,6.043,0,0,1-5.783-4.4,5.93,5.93,0,0,1-.219-2.674c5.81,3.653,12.528,4.671,19.382,4.487-.41-1.255.281-3.7.452-4.234.1-.324-.074-.542-.4-.483a5.5,5.5,0,0,0-1.034.311c-4.933,2.238-16.5-.956-18.041-1.6" transform="translate(-296.077 -315.923)"/><path class="d" d="M404.878,400.128a.728.728,0,0,0-.395-.452c-1.419-.632-6.93-3.038-18.018,4.157a.441.441,0,0,0-.207.308c-.237,1.752-.412,3.514-.7,5.257A40.247,40.247,0,0,1,383,419.02c-.661,1.366-1.44,2.67-2.178,4.024.038.021.134.082.236.128a5.583,5.583,0,0,0,3.193.491,6.053,6.053,0,0,0,5.106-6.112v-9.409h.532c2.8,0,6.462.012,9.262,0a6.119,6.119,0,0,0,5.727-8.011m-5.287,4.244s-2.3-.4-2.236-2.45c0,0,.063-1.981,2.8-1.646a1.879,1.879,0,0,1,.617.188,2.562,2.562,0,0,1,1.6,2.188s-.023,2-2.779,1.72" transform="translate(-361.864 -380.245)"/><path class="d" d="M402.407,331.952c-2.926-.047-6.716-.013-9.643-.013H392.3V331.4q0-4.452,0-8.9a5.8,5.8,0,0,0-.031-.668,6.052,6.052,0,0,0-5.438-5.468.536.536,0,0,0-.588.3,11.317,11.317,0,0,0-1.3,8.605,44.03,44.03,0,0,0,2.055,6.065c.775,2,2.047,5.486,2.119,5.9a83.721,83.721,0,0,1,8.706-2.831,17.071,17.071,0,0,1,7.461-.342l1.641.356a5.665,5.665,0,0,0-4.514-2.464m-13.058-8.406a1.609,1.609,0,0,1-.035.236c-.111.488-.613,2.189-2.216,2.2a1.374,1.374,0,0,1-.337-.039,1.9,1.9,0,0,1-1.37-1.928,3.444,3.444,0,0,1,.714-2.433,1.968,1.968,0,0,1,1.587-.833s1.872.023,1.658,2.793" transform="translate(-364.806 -316.259)"/><path class="d" d="M555.642,388.874H543.209V367.286h12.433v3.75h-7.856v4.74H555.1v3.75h-7.309v5.567h7.856Z" transform="translate(-487.924 -355.795)"/><rect class="d" width="4.504" height="22.473" transform="translate(72.624 10.606)"/><path class="d" d="M664.493,363.28q0-2.2,2.451-2.2t2.451,2.2a2.147,2.147,0,0,1-.613,1.632,2.576,2.576,0,0,1-1.838.583q-2.451,0-2.451-2.215m4.7,20.776h-4.5V367.548h4.5Z" transform="translate(-582.075 -350.978)"/><path class="d" d="M711.149,391.013a9.775,9.775,0,0,0,2.835-.517v3.352a10.108,10.108,0,0,1-4.135.753,5.059,5.059,0,0,1-3.935-1.366,5.943,5.943,0,0,1-1.233-4.1v-7.959h-2.156v-1.9l2.48-1.506,1.3-3.485h2.88V377.8h4.621v3.381h-4.621v7.959a1.757,1.757,0,0,0,.539,1.418,2.128,2.128,0,0,0,1.425.458" transform="translate(-611.6 -361.227)"/><path class="d" d="M787.284,385.807h-4.5v-9.643q0-3.573-2.658-3.573a3.022,3.022,0,0,0-2.732,1.285,7.847,7.847,0,0,0-.842,4.164v7.767h-4.5V363.334h4.5v4.177q0,.547-.1,2.57l-.1,1.329h.236a5.216,5.216,0,0,1,4.784-2.422,5.85,5.85,0,0,1,4.415,1.565,6.22,6.22,0,0,1,1.506,4.489Z" transform="translate(-665.567 -352.728)"/><path class="d" d="M870.963,405.323l-.871-2.244h-.118a6.655,6.655,0,0,1-2.341,1.986,7.557,7.557,0,0,1-3.138.554,5.072,5.072,0,0,1-3.743-1.359,5.214,5.214,0,0,1-1.366-3.868,4.357,4.357,0,0,1,1.838-3.876,10.653,10.653,0,0,1,5.545-1.38l2.865-.089v-.723a2.245,2.245,0,0,0-2.569-2.511,11.7,11.7,0,0,0-4.651,1.2l-1.491-3.042a13.414,13.414,0,0,1,6.32-1.491,7.872,7.872,0,0,1,5.094,1.447,5.348,5.348,0,0,1,1.772,4.4v11Zm-1.329-7.649-1.742.059a5.584,5.584,0,0,0-2.924.709,2.227,2.227,0,0,0-.96,1.979q0,1.905,2.186,1.905a3.464,3.464,0,0,0,2.5-.9,3.164,3.164,0,0,0,.938-2.392Z" transform="translate(-733.369 -372.244)"/><path class="d" d="M948.444,363.28q0-2.2,2.451-2.2t2.451,2.2a2.148,2.148,0,0,1-.613,1.632,2.577,2.577,0,0,1-1.839.583q-2.451,0-2.451-2.215m4.7,20.776h-4.5V367.548h4.5Z" transform="translate(-802.504 -350.978)"/><path class="d" d="M1003.15,388.606a7.25,7.25,0,0,1,1.521.133l-.339,4.223a5.146,5.146,0,0,0-1.329-.148,4.774,4.774,0,0,0-3.359,1.107,4,4,0,0,0-1.2,3.1v8.4h-4.5V388.916h3.411l.665,2.776h.221a6.21,6.21,0,0,1,2.074-2.237,5.119,5.119,0,0,1,2.843-.849" transform="translate(-837.819 -372.346)"/></g></g></g></g></svg>